<svg fill='#fff' t="1505919175460" class="icon" style="" viewBox="0 0 1024 1024" version="1.1" xmlns="http://www.w3.org/2000/svg" p-id="3909" xmlns:xlink="http://www.w3.org/1999/xlink" width="20" height="20"><defs><style type="text/css"></style></defs><path d="M947.6096 266.3424l-81.152 81.152v0.1024L310.5792 903.3728C292.5056 921.5488 124.928 972.8 83.6608 972.8c-6.8096 0-16.7424-0.8704-24.1152-8.2432-8.704-8.704-18.4832-18.4832 15.3088-132.1472 7.2704-24.4224 32-105.216 45.824-119.04l636.928-636.9792c16.2816-16.2304 37.888-25.1904 60.8256-25.1904 22.9376 0 44.544 8.96 60.7744 25.1904l68.4032 68.4032c16.2304 16.2304 25.1904 37.8368 25.1904 60.7744 0 22.9888-8.96 44.544-25.1904 60.7744zM95.1808 928.8192c26.2144-3.6864 73.9328-17.152 114.7904-30.3616l-84.48-84.5312c-13.312 41.728-26.624 90.368-30.3104 114.8928z m45.7216-160.256l114.3296 114.3808c12.5952-4.7104 22.1184-8.6528 26.0608-11.008L820.8384 332.3392 691.712 203.1616 152.064 742.8096c-2.7136 4.4544-6.656 13.7728-11.1616 25.7536z m776.2944-593.408l-68.4032-68.352a44.032 44.032 0 0 0-60.7744 0l-65.9456 65.9456 129.1776 129.1776 65.9456-65.9456a42.752 42.752 0 0 0 0-60.7744z m-34.9696 211.968a21.504 21.504 0 1 1 30.4128 30.3616l-188.6208 188.6208a21.4528 21.4528 0 1 1-30.3616-30.4128l188.5696-188.5696z" p-id="3910"></path></svg>
